# xmcd
#
# Track frame offsets: 
#        150
#        14848
#        30455
#        45313
#        65720
#        88632
#        104674
#        123231
#
# Disc length: 1975 seconds
#
# Revision: 0
# Processed by: cddbd v1.5.2PL0 Copyright (c) Steve Scherf et al.
# Submitted via: ExactAudioCopyFreeDBPlugin 1.0
#
DISCID=6707b508
DTITLE=League of Gentlemen - Cinema Noir
DYEAR=2014
DGENRE=blues
TTITLE0=The Late Night Streetcar Line
TTITLE1=Eileen
TTITLE2=Getaway Car
TTITLE3=Rock The Shack
TTITLE4=Wild Hearts
TTITLE5=Baby Run
TTITLE6=Unconditional Love
TTITLE7=Chasing The Sun
EXTD=
EXTT0=
EXTT1=
EXTT2=
EXTT3=
EXTT4=
EXTT5=
EXTT6=
EXTT7=
PLAYORDER=
